<svg width="500" height="500" viewBox="0 0 500 500" fill="none" xmlns="http://www.w3.org/2000/svg">
<path d="M323.974 355.993L368.55 456.981C371.244 463.093 376.864 464.554 381.037 460.309L424.71 415.896C428.089 412.474 428.852 405.368 426.485 400.002L398.382 336.399C397.245 333.818 395.47 331.874 393.446 330.972L364.268 318.096C362.073 317.132 359.738 317.318 357.776 318.64L327.571 339.167C322.931 342.324 321.28 349.866 323.974 355.978V355.993Z" fill="#263829"/>
<path d="M230.633 323.243L188.377 458.21C185.45 467.541 189.389 476.451 197.065 477.96L278.385 493.946C284.722 495.19 291.308 489.234 293.145 480.774L313.106 389.008C313.853 385.587 313.511 381.979 312.187 378.962L293.753 337.208C292.414 334.191 290.156 331.905 287.431 330.848L246.063 314.83C239.788 312.404 232.859 316.137 230.617 323.274L230.633 323.243Z" fill="#263829"/>
<path d="M181.138 215.677L48.3596 261.522C38.613 264.881 33.5217 274.444 37.1961 282.795L80.0128 380.144C83.6873 388.511 94.1968 391.232 103.274 386.333L196.303 336.259C199.588 334.487 202.11 331.47 203.34 327.846L219.408 280.369C220.514 277.104 220.343 273.465 218.926 270.261L198.389 223.686C195.447 216.999 187.771 213.407 181.138 215.693V215.677Z" fill="#263829"/>
<path d="M216.901 122.527L107.088 58.7219C99.6146 54.3832 90.7866 55.1918 87.4235 60.6657L44.2799 130.956C40.2006 137.612 44.1086 146.491 52.9366 150.628L147.818 195.104C151.322 196.752 155.198 197.079 158.608 196.037L202.375 182.663C205.333 181.761 207.59 179.677 208.696 176.878L223.83 138.218C225.9 132.947 222.818 125.98 216.917 122.543L216.901 122.527Z" fill="#263829"/>
<path d="M295.621 103.851L256.541 15.397C254.174 10.0474 248.413 5.84867 243.618 6.00418L181.432 8.13466C175.5 8.33682 172.776 13.4375 175.454 19.5024L207.263 91.5499C208.555 94.4735 210.875 97.086 213.724 98.7966L251.278 121.485C253.878 123.056 256.696 123.616 259.11 123.056L291.962 115.374C296.384 114.348 298.003 109.169 295.636 103.82L295.621 103.851Z" fill="#263829"/>
<path d="M365.448 148.357L379.726 82.701C380.52 79.0621 378.231 73.8992 374.603 71.1155L329.607 36.6858C325.496 33.5445 321.215 33.9333 320.063 37.6344L305.412 84.4427C304.773 86.4643 305.038 89.0147 306.143 91.5184L321.417 126.073C322.523 128.576 324.36 130.769 326.493 132.153L356.34 151.452C360.45 154.111 364.514 152.696 365.464 148.373L365.448 148.357Z" fill="#263829"/>
<path d="M388.992 308.144L452.952 338.126C456.471 339.774 459.662 336.882 460.114 331.734L464.956 275.284C465.345 270.728 463.057 265.549 459.818 263.668L418.994 239.937C417.235 238.911 415.413 238.833 413.934 239.688L392.339 252.331C390.689 253.295 389.536 255.208 389.132 257.65L382.966 294.459C382.047 299.979 384.757 306.137 389.007 308.128L388.992 308.144Z" fill="#263829"/>
</svg>

