<svg width="842" height="162" viewBox="0 0 842 162" fill="none" xmlns="http://www.w3.org/2000/svg">
<path d="M95.2805 115.801L110.029 149.215C110.92 151.237 112.78 151.721 114.161 150.316L128.611 135.621C129.729 134.489 129.981 132.138 129.198 130.363L119.9 109.318C119.523 108.464 118.936 107.821 118.266 107.523L108.613 103.262C107.886 102.943 107.113 103.005 106.464 103.442L96.4705 110.234C94.9353 111.279 94.3892 113.774 95.2805 115.796V115.801Z" fill="#263829"/>
<path d="M64.3954 104.965L50.4142 149.622C49.4458 152.709 50.7491 155.657 53.2888 156.156L80.1951 161.445C82.2918 161.857 84.4709 159.886 85.0787 157.087L91.683 126.725C91.9302 125.593 91.8169 124.399 91.379 123.401L85.2797 109.586C84.8366 108.588 84.0897 107.831 83.1881 107.482L69.5006 102.182C67.4245 101.379 65.1321 102.614 64.3903 104.976L64.3954 104.965Z" fill="#263829"/>
<path d="M48.0215 69.3756L4.0894 84.5439C0.864553 85.6553 -0.819991 88.8197 0.395765 91.5827L14.5624 123.792C15.7782 126.56 19.2554 127.461 22.2588 125.84L53.039 109.272C54.126 108.686 54.9606 107.688 55.3675 106.489L60.6839 90.78C61.0496 89.6995 60.993 88.4955 60.5242 87.4356L53.7293 72.0254C52.7557 69.8129 50.216 68.6244 48.0215 69.3807V69.3756Z" fill="#263829"/>
<path d="M59.8532 38.5554L23.5196 17.4442C21.0469 16.0087 18.1259 16.2763 17.0132 18.0874L2.73839 41.3442C1.3887 43.5463 2.68173 46.4843 5.60263 47.853L36.9959 62.5685C38.155 63.1139 39.4377 63.222 40.5659 62.8772L55.0468 58.4523C56.0256 58.1539 56.7726 57.4644 57.1383 56.5382L62.1456 43.747C62.8307 42.0028 61.8107 39.6977 59.8583 38.5606L59.8532 38.5554Z" fill="#263829"/>
<path d="M85.9015 32.3756L72.9712 3.10915C72.1882 1.33916 70.2821 -0.0500687 68.6955 0.0013843L48.1204 0.706291C46.1576 0.77318 45.2561 2.46084 46.1422 4.46751L56.6667 28.3057C57.0943 29.273 57.8619 30.1374 58.8046 30.7034L71.23 38.2104C72.0903 38.7301 73.0227 38.9153 73.8212 38.7301L84.6909 36.1883C86.1539 35.8487 86.6897 34.1353 85.9067 32.3653L85.9015 32.3756Z" fill="#263829"/>
<path d="M109.004 47.1014L113.728 25.378C113.991 24.174 113.234 22.4657 112.034 21.5447L97.1457 10.153C95.7857 9.11367 94.369 9.24231 93.9878 10.4669L89.1402 25.9542C88.929 26.6231 89.0166 27.467 89.3824 28.2954L94.436 39.7282C94.8018 40.5566 95.4096 41.2821 96.1154 41.74L105.991 48.1254C107.351 49.0052 108.695 48.537 109.01 47.1066L109.004 47.1014Z" fill="#263829"/>
<path d="M116.791 99.9697L137.954 109.89C139.118 110.435 140.174 109.478 140.323 107.775L141.925 89.0976C142.054 87.5901 141.297 85.8767 140.225 85.2541L126.718 77.4024C126.136 77.0628 125.533 77.0371 125.044 77.32L117.899 81.5032C117.353 81.8222 116.971 82.4551 116.837 83.2629L114.797 95.4418C114.494 97.2684 115.39 99.3059 116.796 99.9645L116.791 99.9697Z" fill="#263829"/>
<g clip-path="url(#clip0_1_1181)">
<path d="M212.569 107.994H201.176V49.1181C201.176 47.6157 202.399 46.401 203.911 46.401H209.827C211.34 46.401 212.563 47.6157 212.563 49.1181V66.0667C215.459 53.7788 223.473 46.401 236.578 46.401H239.417V57.1865H236.604C218.465 57.1865 212.556 63.7779 212.556 77.4659V108L212.569 107.994Z" fill="#263829"/>
<path d="M301.886 87.5736C298.68 101.37 287.937 109.669 273.422 109.669C255.167 109.669 242.938 96.5945 242.938 77.095C242.938 57.5955 255.032 44.7195 273.062 44.7195C291.091 44.7195 302.169 57.2887 302.169 76.9288V79.9081C302.169 80.6881 301.532 81.3146 300.753 81.3146H254.556C255.876 92.5987 262.962 99.4459 273.712 99.4459C281.925 99.4459 287.467 95.4246 290.499 87.5736H301.892H301.886ZM290.383 71.5393C288.864 60.8433 282.788 54.9487 273.113 54.9487C263.439 54.9487 256.493 61.1758 254.775 71.5393H290.383Z" fill="#263829"/>
<path d="M338.699 99.4459C348.965 99.4459 354.417 92.9056 355.936 84.7797H367.33C365.476 98.7746 355.293 109.669 338.673 109.669C320.502 109.669 308.355 96.6521 308.355 77.1781C308.355 57.7042 320.508 44.7195 338.673 44.7195C355.325 44.7195 365.502 55.6136 367.33 69.6085H355.936C354.443 61.4763 348.991 54.9423 338.699 54.9423C326.971 54.9423 319.742 63.407 319.742 77.1781C319.742 90.9493 326.971 99.4459 338.699 99.4459Z" fill="#263829"/>
<path d="M403.833 44.726C422.004 44.726 434.15 57.7171 434.15 77.1846C434.15 96.6521 421.998 109.675 403.833 109.675C385.668 109.675 373.516 96.6585 373.516 77.1846C373.516 57.7107 385.668 44.726 403.833 44.726ZM403.865 99.446C415.567 99.446 422.764 90.9557 422.764 77.1782C422.764 63.4007 415.561 54.9424 403.865 54.9424C392.17 54.9424 384.909 63.4071 384.909 77.1782C384.909 90.9493 392.137 99.446 403.865 99.446Z" fill="#263829"/>
<path d="M453.131 107.994H441.738V49.1181C441.738 47.6156 442.961 46.4009 444.474 46.4009H450.389C451.902 46.4009 453.125 47.6156 453.125 49.1181V63.5477C456.022 51.816 463.726 44.7195 474.218 44.7195C485.303 44.7195 492.608 52.628 494.552 65.9771C496.94 52.7942 504.961 44.7195 516.154 44.7195C529.202 44.7195 536.997 55.6712 536.997 73.5468V107.987H525.604V73.5468C525.604 61.2013 520.905 54.9423 511.397 54.9423C501.163 54.9423 495.061 62.2051 495.061 74.6656V107.994H483.668V73.5532C483.668 61.2077 478.969 54.9487 469.462 54.9487C459.227 54.9487 453.125 62.2115 453.125 74.672V108L453.131 107.994Z" fill="#263829"/>
<path d="M557.104 107.994H545.711V49.1181C545.711 47.6156 546.934 46.4009 548.447 46.4009H554.362C555.875 46.4009 557.098 47.6156 557.098 49.1181V63.5477C559.994 51.816 567.699 44.7195 578.191 44.7195C589.275 44.7195 596.581 52.628 598.525 65.9771C600.913 52.7942 608.933 44.7195 620.127 44.7195C633.174 44.7195 640.969 55.6712 640.969 73.5468V107.987H629.576V73.5468C629.576 61.2013 624.877 54.9423 615.37 54.9423C605.136 54.9423 599.033 62.2051 599.033 74.6656V107.994H587.64V73.5532C587.64 61.2077 582.941 54.9487 573.434 54.9487C563.2 54.9487 557.098 62.2115 557.098 74.672V108L557.104 107.994Z" fill="#263829"/>
<path d="M678.059 44.726C696.423 44.726 707.507 54.725 707.507 71.4626V108H696.114V91.4352C693.101 102.777 683.652 109.675 670.579 109.675C657.506 109.675 647.992 102.246 647.992 91.0964C647.992 79.9465 657.216 72.8819 672.182 72.8819H696.114V71.4562C696.114 61.3165 689.085 54.9744 677.859 54.9744C667.612 54.9744 662.366 59.0725 661.381 65.5105C661.175 66.8467 660.061 67.8568 658.703 67.8568H652.685C651.082 67.8568 649.801 66.4823 649.981 64.8967C651.404 52.4554 661.915 44.726 678.052 44.726H678.059ZM672.072 82.3823C663.692 82.3823 659.25 85.2593 659.25 90.732C659.25 96.569 664.367 99.8104 673.649 99.8104C686.813 99.8104 696.12 93.3021 696.12 84.083V82.3823H672.072Z" fill="#263829"/>
<path d="M727.616 107.994H716.223V49.1181C716.223 47.6157 717.446 46.401 718.958 46.401H724.874C726.386 46.401 727.609 47.6157 727.609 49.1181V64.1935C730.615 52.0718 739.054 44.726 750.64 44.726C764.756 44.726 773.195 55.6776 773.195 73.5532V107.994H761.802V73.5532C761.802 61.2078 756.543 54.9488 745.884 54.9488C734.439 54.9488 727.603 62.2116 727.603 74.6721V108L727.616 107.994Z" fill="#263829"/>
<path d="M841.149 28.6405V107.994H829.756V88.9994C826.518 101.652 818.002 109.669 806.751 109.669C791.45 109.669 780.508 96.0895 780.508 77.1782C780.508 58.2669 791.45 44.7196 806.751 44.7196C818.002 44.7196 826.525 52.7367 829.756 65.3634V28.6405C829.756 26.7992 831.256 25.3096 833.109 25.3096H837.795C839.649 25.3096 841.149 26.7992 841.149 28.6405ZM810.632 54.6675C798.479 54.6675 791.901 62.576 791.901 77.1846C791.901 91.7932 798.486 99.7273 810.632 99.7273C822.778 99.7273 829.756 91.237 829.756 77.1846C829.756 63.1322 822.553 54.6675 810.632 54.6675Z" fill="#263829"/>
</g>
<defs>
<clipPath id="clip0_1_1181">
<rect width="639.974" height="84.3657" fill="white" transform="translate(201.176 25.3096)"/>
</clipPath>
</defs>
</svg>
